<svg width="1792" height="1792" xmlns="http://www.w3.org/2000/svg">

 <g>
  <title>background</title>
  <rect fill="none" id="canvas_background" height="402" width="582" y="-1" x="-1"/>
 </g>
 <g>
  <title>Layer 1</title>
  <path fill="#ffffff" id="svg_1" d="m1408,960l0,-128q0,-26 -19,-45t-45,-19l-320,0l0,-320q0,-26 -19,-45t-45,-19l-128,0q-26,0 -45,19t-19,45l0,320l-320,0q-26,0 -45,19t-19,45l0,128q0,26 19,45t45,19l320,0l0,320q0,26 19,45t45,19l128,0q26,0 45,-19t19,-45l0,-320l320,0q26,0 45,-19t19,-45zm256,-544l0,960q0,119 -84.5,203.5t-203.5,84.5l-960,0q-119,0 -203.5,-84.5t-84.5,-203.5l0,-960q0,-119 84.5,-203.5t203.5,-84.5l960,0q119,0 203.5,84.5t84.5,203.5z"/>
 </g>
</svg>